<svg width="79" height="79" viewBox="0 0 79 79" fill="none" xmlns="http://www.w3.org/2000/svg">
<path d="M47.0977 41.1602V32.4023C47.0977 30.126 48.9502 28.2734 51.2266 28.2734H60.4844H60.9844V27.7734V18.5156V18.0156H60.4844H48.9121C42.2549 18.0156 36.8398 23.4307 36.8398 30.0879V41.1602H28.082H27.582V41.6602V50.918V51.418H28.082H36.8398V78.5H11.5723C5.46739 78.5 0.5 73.5326 0.5 67.4277V11.5723C0.5 5.46739 5.46739 0.5 11.5723 0.5H67.4277C73.5326 0.5 78.5 5.46739 78.5 11.5723V67.4277C78.5 73.5326 73.5326 78.5 67.4277 78.5H47.0977V51.418H58.5237H58.9473L59.0169 51.0002L60.5599 41.7424L60.6569 41.1602H60.0667H47.0977ZM50.7266 74.3711V74.8711H51.2266H67.4277C71.5324 74.8711 74.8711 71.5324 74.8711 67.4277V11.5723C74.8711 7.46763 71.5324 4.12891 67.4277 4.12891H11.5723C7.46763 4.12891 4.12891 7.46763 4.12891 11.5723V67.4277C4.12891 71.5324 7.46763 74.8711 11.5723 74.8711H32.7109H33.2109V74.3711V55.5469V55.0469H32.7109H23.9531V37.5312H32.7109H33.2109V37.0312V30.0879C33.2109 21.4305 40.2547 14.3867 48.9121 14.3867H64.6133V31.9023H51.2266H50.7266V32.4023V37.0312V37.5312H51.2266H64.9407L62.0215 55.0469H51.2266H50.7266V55.5469V74.3711Z" fill="white" stroke="#822FB0"/>
</svg>
