<svg width="248" height="296" viewBox="0 0 248 296" fill="none" xmlns="http://www.w3.org/2000/svg">
<path opacity="0.7" d="M247.731 175.379C247.731 241.996 192.274 296 123.865 296C55.4564 296 0 241.996 0 175.379C0 108.762 55.4564 54.7588 123.865 54.7588C192.274 54.7588 247.731 108.762 247.731 175.379Z" fill="url(#paint0_radial)"/>
<mask id="mask0" mask-type="alpha" maskUnits="userSpaceOnUse" x="6" y="13" width="236" height="235">
<path d="M241.523 130.376C241.523 195.201 188.909 247.752 124.006 247.752C59.1034 247.752 6.48926 195.201 6.48926 130.376C6.48926 65.551 59.1034 13 124.006 13C188.909 13 241.523 65.551 241.523 130.376Z" fill="#FFD301"/>
</mask>
<g mask="url(#mask0)">
<path d="M241.523 130.376C241.523 195.201 188.909 247.752 124.006 247.752C59.1034 247.752 6.48926 195.201 6.48926 130.376C6.48926 65.551 59.1034 13 124.006 13C188.909 13 241.523 65.551 241.523 130.376Z" fill="url(#paint1_radial)"/>
<path d="M269.517 144.368C269.517 216.92 210.636 275.735 138.003 275.735C65.3701 275.735 6.48926 216.92 6.48926 144.368C6.48926 71.8153 65.3701 13 138.003 13C210.636 13 269.517 71.8153 269.517 144.368Z" fill="url(#paint2_radial)"/>
</g>
<path d="M124.365 77.7494C126.909 77.7494 129.452 77.6787 131.996 77.82C132.773 77.82 133.621 78.244 134.186 78.7386C136.801 81.2822 139.344 83.8258 141.888 86.4401C142.594 87.1467 143.372 87.5 144.432 87.5C147.399 87.4293 150.367 87.4293 153.334 87.5C154.111 87.5 155.101 87.9239 155.666 88.4185C159.269 91.9513 162.873 95.5548 166.406 99.1583C166.9 99.6529 167.254 100.501 167.254 101.207C167.324 104.881 167.324 108.556 167.254 112.23C167.254 113.219 167.536 113.925 168.172 114.561C170.362 116.681 172.553 118.871 174.602 121.132C175.096 121.698 175.52 122.616 175.52 123.464C175.591 128.551 175.591 133.568 175.52 138.655C175.52 139.362 175.096 140.28 174.602 140.846C172.058 143.531 169.373 146.145 166.759 148.83C166.264 149.324 165.911 150.172 165.911 150.879C165.84 153.846 165.84 156.814 165.911 159.782C165.911 160.841 165.628 161.689 164.851 162.466C161.248 165.999 157.715 169.673 154.041 173.136C153.546 173.63 152.557 173.913 151.78 173.913C148.318 173.983 144.926 173.983 141.464 173.913C140.051 173.842 138.991 174.337 138.072 175.326C136.094 177.375 134.045 179.424 131.925 181.402C131.431 181.826 130.724 182.18 130.088 182.18C124.93 182.25 119.702 182.25 114.544 182.18C113.837 182.18 112.989 181.756 112.495 181.261C109.81 178.647 107.196 175.962 104.44 173.348C103.945 172.853 103.168 172.57 102.462 172.5C99.3527 172.429 96.2438 172.5 93.2056 172.429C92.499 172.429 91.5805 172.076 91.0859 171.581C87.3411 167.978 83.667 164.304 80.0635 160.629C79.6395 160.205 79.3569 159.358 79.3569 158.722C79.2863 155.118 79.2863 151.444 79.3569 147.77C79.3569 146.639 79.0743 145.862 78.2971 145.085C76.1067 142.965 73.987 140.775 71.8673 138.585C71.4434 138.09 71.0901 137.242 71.0901 136.606C71.0194 131.448 71.0194 126.22 71.0901 121.062C71.0901 120.426 71.4434 119.578 71.938 119.083C74.4816 116.398 77.1666 113.784 79.8515 111.17C80.4874 110.534 80.77 109.898 80.77 108.98C80.6994 105.941 80.6994 102.974 80.77 99.9355C80.77 99.1583 81.1233 98.1691 81.6886 97.6038C85.2214 94.0004 88.8249 90.3969 92.4284 86.8641C92.9936 86.3695 93.8415 85.9455 94.6187 85.9455C98.2222 85.8749 101.826 85.8749 105.429 85.9455C106.56 85.9455 107.408 85.5922 108.185 84.815C110.304 82.6953 112.424 80.505 114.614 78.4559C115.109 78.032 115.886 77.6787 116.593 77.6787C119.137 77.6787 121.751 77.7494 124.365 77.7494ZM100.13 129.894C100.13 132.791 100.13 135.688 100.13 138.585C100.13 139.079 100.413 139.786 100.766 140.139C104.864 144.308 108.962 148.406 113.131 152.433C113.555 152.857 114.261 153.14 114.897 153.14C120.55 153.21 126.202 153.21 131.855 153.14C132.42 153.14 133.126 152.857 133.48 152.504C137.578 148.477 141.605 144.449 145.633 140.351C146.127 139.856 146.41 139.079 146.41 138.373C146.481 132.861 146.41 127.35 146.481 121.839C146.481 120.92 146.269 120.285 145.562 119.649C141.605 115.763 137.719 111.735 133.692 107.92C133.126 107.354 132.208 107.001 131.431 107.001C125.92 106.93 120.479 106.93 114.968 107.001C114.261 107.001 113.413 107.354 112.919 107.849C108.821 111.806 104.864 115.833 100.836 119.931C100.413 120.355 100.13 121.062 100.13 121.698C100.13 124.312 100.13 127.138 100.13 129.894Z" fill="black"/>
<path d="M85.8572 97.6747C87.4117 95.8376 88.5422 94.3539 91.0151 94.5658C93.7001 94.8484 96.4557 94.5658 99.1406 94.6365C100.13 94.6365 100.2 94.1419 100.2 93.3647C100.2 92.5874 100.342 91.8102 99.1406 91.8102C97.1622 91.8102 95.1839 91.8102 93.2055 91.8102C92.7815 91.8102 92.4283 91.7396 91.9337 91.5983C93.2055 90.3264 93.912 88.56 96.2437 88.7013C99.4233 88.9133 102.603 88.7013 105.782 88.772C106.418 88.772 107.195 89.1253 107.619 89.5492C110.587 92.4461 113.484 95.4137 116.451 98.3106C117.017 98.8759 117.158 99.2998 116.522 99.9357C111.294 105.094 106.136 110.252 100.978 115.48C100.766 115.692 100.554 115.833 100.059 116.187C100.059 114.562 100.059 113.148 100.059 111.735C100.059 109.969 99.7059 109.616 97.9395 109.616C93.6294 109.616 89.3194 109.616 85.0093 109.616C83.9495 109.616 83.3842 109.474 83.4549 108.203C83.5255 107.143 83.5255 106.436 84.9387 106.436C89.5313 106.507 94.0534 106.436 98.646 106.436C99.9178 106.436 100.695 105.164 99.9885 104.104C99.8472 103.822 99.2113 103.751 98.7873 103.751C94.1947 103.751 89.602 103.751 85.0093 103.681C84.5147 103.681 83.7375 103.469 83.6669 103.186C83.5255 102.409 83.5255 101.631 83.7375 100.854C83.8082 100.642 84.5147 100.501 84.9387 100.501C89.4607 100.501 93.9827 100.501 98.5047 100.501C100.13 100.501 100.554 99.9357 100.059 98.3813C99.9885 98.0986 99.2819 97.816 98.9287 97.816C95.1132 97.7454 91.2978 97.816 87.4823 97.816C87.0584 97.816 86.6344 97.7454 85.8572 97.6747Z" fill="#D0938A"/>
<path d="M146.48 143.813C146.48 145.509 146.48 146.922 146.48 148.264C146.48 150.101 146.834 150.384 148.6 150.384C152.981 150.384 157.362 150.384 161.742 150.384C162.802 150.384 163.155 150.808 163.085 151.797C163.085 152.786 163.155 153.634 161.742 153.564C157.15 153.493 152.557 153.564 147.964 153.493C146.834 153.493 146.41 153.776 146.48 154.977C146.551 155.966 146.834 156.249 147.823 156.249C152.416 156.178 157.008 156.249 161.601 156.249C162.661 156.249 163.226 156.46 163.155 157.732C163.155 158.863 163.014 159.499 161.601 159.499C157.079 159.428 152.486 159.499 147.894 159.428C146.834 159.428 146.41 159.64 146.41 160.841C146.41 161.972 146.763 162.325 147.823 162.254C151.497 162.184 155.171 162.254 158.845 162.254C159.34 162.254 159.835 162.254 160.329 162.254C159.905 163.809 157.997 165.363 156.655 165.363C153.617 165.363 150.649 165.363 147.611 165.363C146.622 165.363 146.268 165.646 146.268 166.635C146.268 167.624 146.41 168.189 147.611 168.189C149.448 168.119 151.285 168.189 153.122 168.189C153.546 168.189 153.97 168.26 154.465 168.401C153.193 169.744 152.416 171.44 150.084 171.298C146.904 171.086 143.725 171.298 140.545 171.228C139.909 171.228 139.203 170.945 138.779 170.521C135.741 167.554 132.773 164.586 129.806 161.618C129.24 161.053 129.24 160.629 129.806 160.064C134.963 154.977 140.051 149.819 145.138 144.732C145.562 144.449 145.845 144.237 146.48 143.813Z" fill="#B28D5C" stroke="#B28D5C" stroke-width="0.294426" stroke-miterlimit="10"/>
<path d="M116.805 103.821C117.935 102.691 118.783 101.772 119.702 100.924C121.186 99.4407 121.186 99.0167 119.772 97.533C116.734 94.4241 113.625 91.3858 110.516 88.277C109.881 87.641 109.598 87.1465 110.446 86.5812C111.082 86.0866 111.435 84.8148 112.707 86.0866C115.957 89.4075 119.278 92.6577 122.528 95.9785C123.305 96.7557 123.8 96.9677 124.648 96.0492C125.425 95.2719 125.496 94.7774 124.648 93.9295C121.398 90.8206 118.218 87.5704 115.038 84.3909C114.685 84.0376 114.12 83.331 114.261 83.119C114.685 82.4125 115.321 81.8472 116.028 81.3526C116.169 81.282 116.805 81.7059 117.088 81.9885C120.338 85.1681 123.517 88.4183 126.767 91.6685C127.757 92.6577 129.24 92.3044 129.523 90.9619C129.594 90.6086 129.17 90.1847 128.887 89.8314C126.202 87.0758 123.447 84.3909 120.762 81.6353C120.479 81.3526 120.267 81.07 119.702 80.4341C121.892 80.4341 123.659 79.8688 125.213 81.6353C126.979 83.6843 128.958 85.4507 130.866 87.3584C132.137 88.6302 132.137 88.6302 133.339 87.2878C133.55 87.0758 133.692 86.8638 134.045 86.5105C132.137 84.5322 130.23 82.6244 128.393 80.7167C128.463 80.6461 128.534 80.5047 128.534 80.4341C130.159 80.4341 131.855 79.7982 133.339 81.4233C135.6 83.8256 138.002 86.0866 140.263 88.4889C140.687 88.9129 140.969 89.6194 140.969 90.2553C141.04 94.3534 140.969 98.4515 141.04 102.55C141.04 103.468 140.757 103.892 139.768 103.892C132.632 103.892 125.425 103.892 118.289 103.892C117.794 104.033 117.511 103.963 116.805 103.821Z" fill="#A1806B"/>
<path d="M90.9444 167.342C89.1779 165.858 87.6942 164.657 87.9768 162.184C88.2594 159.57 87.9768 156.885 88.0474 154.271C88.0474 153.14 87.5528 152.928 86.6343 152.928C85.6451 152.928 85.2212 153.14 85.2212 154.271C85.2918 156.532 85.2212 158.863 85.2212 161.195C83.5254 160.559 82.1829 158.793 82.1829 157.238C82.1829 153.988 82.1123 150.738 82.2536 147.417C82.2536 146.71 82.6069 145.792 83.1721 145.227C85.9984 142.33 88.8953 139.433 91.7216 136.606C92.2162 136.041 92.6401 135.9 93.276 136.536C98.5046 141.764 103.733 146.993 108.962 152.222C109.103 152.363 109.174 152.575 109.456 152.999C108.467 152.999 107.69 152.999 106.913 152.999C106.277 152.999 105.641 152.999 105.005 152.999C103.309 153.069 102.956 153.352 102.956 155.048C102.956 158.157 102.956 161.336 102.956 164.445C102.956 165.717 102.885 166.989 102.956 168.19C103.027 169.25 102.603 169.532 101.543 169.532C99.7764 169.462 99.7764 169.532 99.7764 167.766C99.7764 165.152 99.7764 162.467 99.7764 159.852C99.7764 158.015 99.7058 156.178 99.7764 154.341C99.8471 153.281 99.4938 152.928 98.4339 152.928C97.3741 152.928 96.9502 153.211 96.9502 154.341C97.0208 158.793 96.9502 163.244 96.9502 167.625C96.9502 169.391 96.0316 170.027 94.3359 169.391C94.0532 169.25 93.8413 168.614 93.8413 168.19C93.7706 163.597 93.8413 159.005 93.8413 154.412C93.8413 153.069 92.5694 152.363 91.4389 153.069C91.1563 153.211 91.0857 153.847 91.0857 154.271C91.0857 158.086 91.0857 161.901 91.0857 165.717C91.015 166.282 91.015 166.706 90.9444 167.342Z" fill="#F0D4D0" stroke="#F0D4D0" stroke-width="0.294426" stroke-miterlimit="10"/>
<path d="M137.436 106.86C138.708 106.86 139.98 106.86 141.252 106.86C143.371 106.86 143.654 106.577 143.654 104.457C143.654 100.147 143.725 95.8373 143.654 91.5272C143.654 90.1141 144.29 90.1141 145.35 90.0435C146.48 90.0435 146.904 90.3261 146.834 91.5272C146.763 96.1199 146.834 100.642 146.763 105.235C146.763 106.224 146.763 106.86 148.105 106.86C149.377 106.86 149.519 106.294 149.519 105.235C149.448 100.642 149.589 96.0493 149.519 91.4566C149.519 90.1141 150.225 90.1141 151.144 90.1141C152.062 90.1141 152.698 90.1848 152.698 91.4566C152.627 96.1199 152.698 100.854 152.627 105.517C152.627 106.577 152.91 106.93 153.97 106.93C154.959 106.93 155.524 106.789 155.454 105.588C155.383 101.772 155.454 97.8863 155.454 94.0709C155.454 93.6469 155.524 93.1523 155.524 92.5164C157.291 94.0002 158.775 95.2014 158.563 97.6744C158.28 100.289 158.563 102.903 158.492 105.517C158.492 106.577 158.775 107.001 159.905 107.001C160.965 107.001 161.389 106.718 161.389 105.588C161.318 103.327 161.389 101.066 161.389 98.7342C162.943 99.2288 164.427 101.066 164.427 102.479C164.427 105.871 164.498 109.262 164.427 112.583C164.427 113.289 164.074 114.137 163.579 114.703C160.894 117.529 158.139 120.214 155.454 122.969C154.111 124.312 154.111 124.312 152.839 122.969C147.964 118.023 143.018 113.077 138.143 108.132C137.86 107.849 137.648 107.566 137.436 107.284C137.436 107.142 137.436 107.001 137.436 106.86Z" fill="#683916"/>
<path d="M112.565 173.418C114.544 175.326 116.522 177.163 118.501 179.07C116.593 179.848 114.614 179.565 113.413 178.364C111.152 176.103 108.821 173.842 106.56 171.51C106.065 171.016 105.712 170.238 105.712 169.603C105.641 165.504 105.712 161.406 105.641 157.308C105.641 156.46 105.853 155.966 106.842 155.966C114.12 155.966 121.398 155.966 128.675 155.966C128.887 155.966 129.17 156.036 129.735 156.178C128.816 157.096 128.11 157.803 127.403 158.509C125.213 160.7 125.213 160.841 127.403 163.102C130.3 165.999 133.126 168.896 136.023 171.652C136.942 172.57 136.518 172.994 135.882 173.63C135.176 174.337 134.752 174.831 133.762 173.842C130.654 170.592 127.474 167.483 124.294 164.303C122.952 162.961 122.952 162.961 121.539 164.374C121.398 164.515 121.256 164.657 121.044 164.939C121.256 165.222 121.468 165.504 121.751 165.787C125.001 169.108 128.322 172.358 131.572 175.608C132.703 176.739 132.632 176.668 131.501 177.94C130.583 179 130.018 178.435 129.311 177.728C126.131 174.548 123.023 171.369 119.843 168.189C119.49 167.836 119.207 167.553 118.854 167.342C118.642 167.412 118.571 167.342 118.501 167.412C116.664 169.037 116.664 169.037 118.359 170.804C120.832 173.277 123.305 175.75 125.778 178.293C126.061 178.576 126.343 178.859 126.838 179.494C124.718 179.424 122.952 180.13 121.398 178.293C119.631 176.244 117.582 174.407 115.674 172.499C114.473 171.298 114.473 171.298 113.272 172.57C113.201 172.641 112.989 172.923 112.565 173.418Z" fill="#F4E3D6"/>
<path d="M156.019 130.036C157.008 130.954 157.573 131.52 158.421 132.297C160.47 130.177 162.449 128.128 164.427 126.15C165.982 124.525 167.677 122.97 169.232 121.345C170.08 120.426 170.504 120.85 171.139 121.557C171.705 122.193 172.341 122.617 171.422 123.606C167.96 126.998 164.568 130.46 161.106 133.851C160.965 133.992 160.824 134.134 160.541 134.558C161.248 135.052 161.883 135.618 162.731 136.183C165.84 133.074 169.161 129.753 172.482 126.503C172.553 126.574 172.694 126.644 172.765 126.644C172.694 128.411 173.4 130.177 171.563 131.731C169.373 133.569 167.465 135.83 165.416 137.808C164.286 138.868 165.416 139.292 165.911 139.857C166.476 140.634 166.971 140.352 167.536 139.786C169.161 138.091 170.786 136.465 172.482 134.77C173.259 136.395 172.977 138.656 171.917 139.716C169.585 142.047 167.253 144.45 164.922 146.711C164.498 147.135 163.721 147.488 163.085 147.488C158.987 147.559 154.888 147.488 150.79 147.559C149.942 147.559 149.519 147.417 149.519 146.357C149.519 139.15 149.519 131.873 149.519 124.666C149.519 124.383 149.589 124.101 149.66 123.465C150.72 124.525 151.568 125.302 152.345 126.15C154.041 127.916 154.394 127.916 156.16 126.15C159.128 123.182 162.166 120.214 165.063 117.176C165.84 116.399 166.335 116.54 166.971 117.247C167.536 117.883 168.384 118.307 167.324 119.367C164.215 122.334 161.248 125.443 158.139 128.481C157.432 128.976 156.726 129.4 156.019 130.036Z" fill="#431E0F"/>
<path d="M73.8452 124.948C73.8452 123.818 73.7745 122.687 73.8452 121.627C73.8452 121.274 74.1278 120.921 74.3398 120.709C76.8128 118.165 79.3564 115.621 81.9 113.148C82.324 112.795 82.9599 112.513 83.5251 112.513C87.6939 112.442 91.7919 112.513 95.9607 112.442C96.8086 112.442 97.2325 112.654 97.2325 113.643C97.2325 120.921 97.2325 128.198 97.2325 135.476C97.2325 135.688 97.1618 135.97 97.0912 136.465C95.9607 135.405 95.0421 134.487 94.1236 133.568C92.7105 132.155 92.2865 132.155 90.8028 133.568C87.6939 136.606 84.6556 139.715 81.6174 142.824C80.8402 143.601 80.3456 143.46 79.7097 142.754C79.1444 142.118 78.3672 141.694 79.4271 140.634C82.6773 137.525 85.7861 134.345 88.9657 131.166C90.4495 129.682 90.4495 129.682 88.895 128.34C88.7537 128.198 88.5418 128.057 88.3298 127.845C87.9765 128.128 87.6232 128.41 87.3406 128.764C84.0197 132.014 80.6989 135.264 77.5193 138.655C76.3888 139.786 75.9649 138.797 75.329 138.302C74.5518 137.666 74.6224 137.172 75.329 136.465C78.5792 133.215 81.8294 129.965 85.0796 126.715C85.4329 126.361 85.7155 126.079 85.9981 125.725C85.8568 125.513 85.8568 125.372 85.7155 125.231C84.2317 123.535 84.2317 123.535 82.6773 125.089C80.1336 127.633 77.5193 130.247 74.9757 132.791C74.6931 133.074 74.4105 133.286 74.1278 133.568C73.3506 131.872 73.7039 129.682 74.9757 128.481C77.0247 126.432 79.0031 124.383 81.1228 122.404C81.9 121.698 81.9 121.203 81.1228 120.497C80.4163 119.861 79.9923 119.366 79.1444 120.285C77.8726 121.698 76.4595 123.04 75.0464 124.383C74.7637 124.665 74.4811 124.948 74.1985 125.231C74.0572 125.089 73.9865 125.019 73.8452 124.948Z" fill="#E6B6AE" stroke="#E6B6AE" stroke-width="0.294426" stroke-miterlimit="10"/>
<path d="M147.47 64.7487C147.54 64.7487 147.611 64.8194 147.682 64.8901C147.752 64.9607 147.752 65.102 147.682 65.1727L147.399 66.0912C147.399 66.1619 147.328 66.2325 147.258 66.3032C147.187 66.3738 147.046 66.3738 146.975 66.3032L142.948 65.0314L142.17 67.4337L145.915 68.5642C145.986 68.5642 146.056 68.6349 146.127 68.7055C146.198 68.7762 146.198 68.9175 146.127 68.9881L145.844 69.9067C145.844 69.9773 145.774 70.048 145.703 70.1186C145.632 70.1893 145.491 70.1893 145.421 70.1186L141.676 68.9881L140.757 71.8851C140.757 71.9557 140.687 72.0264 140.616 72.097C140.545 72.1677 140.404 72.1677 140.333 72.097L139.344 71.8144C139.273 71.8144 139.203 71.7437 139.132 71.6731C139.061 71.6024 139.061 71.4611 139.132 71.3905L141.605 63.265C141.605 63.1943 141.676 63.1236 141.746 63.053C141.817 62.9823 141.958 62.9823 142.029 63.053L147.47 64.7487Z" fill="black"/>
<path d="M153.617 75.7003C153.687 75.771 153.758 75.8416 153.829 75.9123C153.829 75.983 153.829 76.1243 153.829 76.1949L153.405 77.0428C153.334 77.1135 153.263 77.1841 153.193 77.2548C153.122 77.2548 152.981 77.2548 152.91 77.2548L147.752 74.7818C147.682 74.7111 147.611 74.6405 147.54 74.5698C147.54 74.4992 147.54 74.3579 147.54 74.2872L151.214 66.6563C151.285 66.5856 151.356 66.515 151.426 66.4443C151.497 66.4443 151.638 66.4443 151.709 66.4443L152.698 66.8683C152.769 66.9389 152.84 67.0096 152.91 67.0802C152.91 67.1509 152.91 67.2922 152.91 67.3629L149.801 73.8633L153.617 75.7003Z" fill="black"/>
<path d="M163.933 73.3684C164.074 73.4391 164.144 73.5098 164.144 73.6511C164.144 73.7217 164.144 73.863 164.074 74.0044L162.025 82.6244C162.025 82.6244 162.025 82.6951 161.954 82.6951C161.883 82.7658 161.813 82.8364 161.742 82.8364C161.672 82.8364 161.53 82.8364 161.46 82.7658L160.682 82.2005C160.541 82.1298 160.47 81.9885 160.47 81.9179C160.47 81.8472 160.47 81.7059 160.47 81.6353L160.824 80.1515L157.432 77.8198L156.16 78.6677C156.09 78.7383 156.019 78.7383 155.948 78.7383C155.878 78.7383 155.736 78.7383 155.595 78.597L154.818 78.0318C154.747 77.9611 154.677 77.8905 154.677 77.8198C154.677 77.7491 154.677 77.6078 154.747 77.5372L154.818 77.4665L162.166 72.4499C162.307 72.3793 162.378 72.3086 162.519 72.3086C162.59 72.3086 162.731 72.3086 162.873 72.3793L163.933 73.3684ZM161.248 78.5264L162.166 74.6403L158.845 76.9013L161.248 78.5264Z" fill="black"/>
<path d="M173.4 81.3532C173.471 81.4239 173.542 81.4945 173.542 81.5652C173.542 81.6358 173.542 81.7772 173.471 81.8478L172.835 82.5544C172.764 82.625 172.694 82.6957 172.623 82.6957C172.552 82.6957 172.411 82.6957 172.34 82.625L170.574 80.9999L165.699 86.2992C165.628 86.3698 165.557 86.4405 165.487 86.4405C165.416 86.4405 165.275 86.4405 165.204 86.3698L164.427 85.6633C164.356 85.5926 164.286 85.5219 164.286 85.4513C164.286 85.3806 164.286 85.2393 164.356 85.1687L169.232 79.8694L167.465 78.2443C167.395 78.1737 167.324 78.103 167.324 78.0324C167.324 77.9617 167.324 77.8204 167.395 77.7497L168.03 77.0432C168.101 76.9725 168.172 76.9019 168.242 76.9019C168.313 76.9019 168.454 76.9019 168.525 76.9725L173.4 81.3532Z" fill="black"/>
<path d="M178.205 86.6522C178.558 87.0762 178.841 87.5707 178.982 87.9947C179.124 88.4186 179.194 88.8426 179.194 89.2665C179.194 89.6198 179.124 89.9731 178.982 90.2557C178.841 90.5383 178.7 90.8209 178.488 90.9623C178.417 91.0329 178.346 91.0329 178.205 91.0329C178.134 91.0329 178.064 90.9623 177.993 90.8916L177.428 90.185C177.357 90.0437 177.286 89.9731 177.286 89.9024C177.286 89.8318 177.286 89.6904 177.357 89.6198C177.428 89.4078 177.498 89.1252 177.428 88.7719C177.357 88.4893 177.216 88.136 176.863 87.7121C176.721 87.5001 176.58 87.3588 176.368 87.2175C176.227 87.0762 176.015 87.0055 175.873 86.9348C175.732 86.8642 175.52 86.8642 175.379 86.8642C175.237 86.8642 175.096 86.9348 174.955 87.0055C174.814 87.1468 174.672 87.2881 174.672 87.4294C174.602 87.5707 174.602 87.7827 174.672 87.9947C174.743 88.2067 174.814 88.4893 174.955 88.7719C175.096 89.0545 175.237 89.4785 175.52 89.9024C175.732 90.397 175.944 90.8209 176.085 91.2449C176.227 91.6688 176.227 92.0221 176.227 92.3047C176.227 92.658 176.156 92.9406 176.015 93.1526C175.873 93.4352 175.661 93.6472 175.379 93.8592C175.096 94.0711 174.743 94.2831 174.39 94.3538C174.036 94.4244 173.612 94.4244 173.259 94.2831C172.835 94.2125 172.482 94.0005 172.058 93.7179C171.634 93.4352 171.281 93.082 170.927 92.5874C170.645 92.2341 170.362 91.8101 170.221 91.3862C170.009 90.9623 169.938 90.5383 169.868 90.1144C169.797 89.6904 169.868 89.3372 170.009 88.9839C170.15 88.6306 170.292 88.348 170.645 88.0653C170.715 87.9947 170.786 87.9947 170.927 87.9947C170.998 87.9947 171.069 88.0653 171.139 88.136L171.705 88.8426C171.775 88.9839 171.846 89.0545 171.846 89.1252C171.846 89.1958 171.846 89.3372 171.775 89.4078C171.705 89.5491 171.705 89.6904 171.634 89.7611C171.634 89.9024 171.563 90.0437 171.634 90.2557C171.634 90.397 171.705 90.609 171.775 90.8209C171.846 91.0329 171.987 91.2449 172.199 91.5275C172.341 91.7395 172.553 91.9514 172.694 92.0928C172.835 92.2341 173.047 92.3754 173.259 92.446C173.471 92.5167 173.612 92.5874 173.824 92.5874C173.966 92.5874 174.178 92.5167 174.319 92.3754C174.46 92.2341 174.531 92.0928 174.602 91.9514C174.602 91.8101 174.602 91.5982 174.531 91.3155C174.46 91.0329 174.319 90.7503 174.178 90.4677C174.036 90.1144 173.824 89.7611 173.612 89.2665C173.4 88.8426 173.259 88.4893 173.188 88.136C173.118 87.7827 173.047 87.5001 173.118 87.1468C173.118 86.8642 173.259 86.5816 173.4 86.2989C173.542 86.0163 173.824 85.8043 174.107 85.5217C174.39 85.3097 174.743 85.0978 175.096 85.0271C175.449 84.9565 175.803 84.9565 176.227 85.0271C176.58 85.0978 177.004 85.3097 177.357 85.5217C177.569 85.9457 177.922 86.2283 178.205 86.6522Z" fill="black"/>
<path d="M191.842 116.187C191.842 116.257 191.842 116.399 191.771 116.469C191.7 116.54 191.63 116.611 191.559 116.611L190.641 116.823C190.57 116.823 190.429 116.823 190.358 116.752C190.287 116.681 190.217 116.611 190.217 116.54L189.227 112.442L186.754 113.078L187.673 116.893C187.673 116.964 187.673 117.105 187.602 117.176C187.532 117.247 187.461 117.317 187.39 117.317L186.472 117.529C186.401 117.529 186.26 117.529 186.189 117.459C186.119 117.388 186.048 117.317 186.048 117.247L185.129 113.431L182.232 114.138C182.162 114.138 182.02 114.138 181.95 114.067C181.879 113.996 181.809 113.926 181.809 113.855L181.526 112.795C181.526 112.725 181.526 112.583 181.597 112.513C181.667 112.442 181.738 112.371 181.809 112.371L190.005 110.322C190.075 110.322 190.217 110.322 190.287 110.393C190.358 110.464 190.429 110.534 190.429 110.605L191.842 116.187Z" fill="black"/>
<path d="M189.086 120.285C189.581 120.285 190.076 120.355 190.5 120.426C190.923 120.567 191.347 120.779 191.701 121.062C192.054 121.345 192.337 121.698 192.549 122.192C192.761 122.616 192.902 123.182 192.972 123.817C193.043 124.453 192.972 125.019 192.831 125.513C192.69 126.008 192.478 126.432 192.195 126.785C191.913 127.138 191.559 127.421 191.135 127.633C190.711 127.845 190.288 127.986 189.793 128.057C189.652 128.057 189.44 128.128 189.228 128.128C189.016 128.128 188.804 128.198 188.592 128.198C188.38 128.198 188.168 128.198 187.956 128.269C187.744 128.269 187.603 128.269 187.391 128.269C186.896 128.269 186.401 128.198 185.978 128.128C185.554 127.986 185.13 127.774 184.776 127.492C184.423 127.209 184.14 126.856 183.928 126.361C183.716 125.867 183.575 125.372 183.505 124.736C183.434 124.1 183.505 123.535 183.646 123.04C183.787 122.546 183.999 122.122 184.282 121.768C184.564 121.415 184.918 121.133 185.342 120.991C185.766 120.779 186.189 120.638 186.684 120.567C186.825 120.567 187.037 120.497 187.249 120.497C187.461 120.497 187.673 120.426 187.885 120.426C188.097 120.426 188.309 120.426 188.521 120.355C188.733 120.285 188.945 120.285 189.086 120.285ZM189.581 126.22C190.217 126.149 190.641 125.867 190.994 125.513C191.277 125.089 191.418 124.595 191.418 124.029C191.347 123.394 191.135 122.97 190.782 122.616C190.429 122.263 189.934 122.122 189.298 122.122C188.945 122.122 188.592 122.122 188.168 122.192C187.744 122.192 187.391 122.263 187.037 122.334C186.401 122.404 185.978 122.687 185.624 123.04C185.342 123.464 185.2 123.959 185.271 124.524C185.342 125.16 185.554 125.584 185.907 125.937C186.26 126.29 186.755 126.432 187.391 126.432C187.744 126.432 188.097 126.432 188.521 126.361C188.874 126.29 189.228 126.22 189.581 126.22Z" fill="black"/>
<path d="M192.831 135.617C192.76 136.677 192.407 137.525 191.842 138.02C191.277 138.514 190.57 138.797 189.652 138.726C189.016 138.656 188.45 138.514 188.026 138.161C187.603 137.808 187.32 137.384 187.108 136.819L183.716 138.373C183.646 138.373 183.646 138.373 183.575 138.373C183.504 138.373 183.434 138.302 183.363 138.302C183.292 138.232 183.292 138.161 183.292 138.09L183.363 136.96C183.363 136.819 183.434 136.677 183.504 136.607C183.575 136.536 183.646 136.465 183.716 136.465L186.896 134.981L187.037 133.215L183.999 132.932C183.928 132.932 183.858 132.862 183.787 132.791C183.716 132.72 183.716 132.65 183.716 132.508L183.787 131.449C183.787 131.378 183.858 131.307 183.928 131.237C183.999 131.166 184.07 131.166 184.211 131.166L192.69 131.873C192.76 131.873 192.831 131.943 192.902 132.014C192.972 132.085 192.972 132.155 192.972 132.297L192.831 135.617ZM188.874 133.356L188.733 135.264C188.662 135.759 188.733 136.183 188.874 136.465C189.016 136.748 189.369 136.96 189.864 136.96C190.358 137.031 190.711 136.889 190.853 136.607C191.065 136.324 191.135 135.9 191.206 135.405L191.347 133.498L188.874 133.356Z" fill="black"/>
<path d="M185.059 162.114C184.988 162.184 184.917 162.255 184.847 162.326C184.776 162.326 184.635 162.326 184.564 162.326L183.716 161.902C183.645 161.831 183.575 161.76 183.504 161.69C183.504 161.619 183.504 161.478 183.504 161.407L185.271 157.662L182.939 156.602L181.243 160.135C181.173 160.206 181.102 160.276 181.031 160.347C180.961 160.347 180.819 160.347 180.749 160.347L179.901 159.923C179.83 159.853 179.759 159.782 179.689 159.711C179.689 159.641 179.689 159.499 179.689 159.429L181.384 155.896L178.7 154.624C178.629 154.553 178.558 154.483 178.488 154.412C178.488 154.341 178.488 154.2 178.488 154.129L178.911 153.14C178.982 153.07 179.053 152.999 179.123 152.928C179.194 152.928 179.335 152.928 179.406 152.928L187.037 156.602C187.108 156.673 187.178 156.744 187.249 156.814C187.249 156.885 187.249 157.026 187.249 157.097L185.059 162.114Z" fill="black"/>
<path d="M180.819 168.896C180.183 169.815 179.547 170.31 178.77 170.522C178.064 170.734 177.286 170.522 176.58 170.027C176.085 169.674 175.661 169.25 175.449 168.755C175.237 168.261 175.237 167.695 175.379 167.13L171.705 166.777C171.634 166.777 171.634 166.777 171.563 166.706C171.493 166.635 171.493 166.565 171.422 166.494C171.422 166.424 171.422 166.353 171.493 166.282L172.128 165.364C172.199 165.222 172.34 165.152 172.482 165.081C172.623 165.081 172.694 165.081 172.764 165.081L176.227 165.364L177.216 163.951L174.672 162.255C174.601 162.184 174.531 162.113 174.531 162.043C174.531 161.972 174.531 161.831 174.601 161.76L175.167 160.912C175.237 160.842 175.308 160.771 175.379 160.771C175.449 160.771 175.591 160.771 175.661 160.842L182.656 165.646C182.727 165.717 182.798 165.788 182.798 165.858C182.798 165.929 182.798 166.07 182.727 166.141L180.819 168.896ZM178.558 164.94L177.498 166.494C177.216 166.918 177.074 167.271 177.074 167.625C177.074 167.978 177.216 168.261 177.64 168.543C178.064 168.826 178.417 168.896 178.699 168.755C178.982 168.614 179.265 168.331 179.547 167.907L180.607 166.353L178.558 164.94Z" fill="black"/>
<path d="M169.302 168.755C169.373 168.684 169.444 168.614 169.514 168.614C169.585 168.614 169.726 168.614 169.797 168.684L176.156 174.266C176.227 174.337 176.297 174.408 176.297 174.478C176.297 174.549 176.297 174.69 176.227 174.761L175.52 175.538C175.449 175.609 175.379 175.679 175.308 175.679C175.238 175.679 175.096 175.679 175.026 175.609L168.666 170.027C168.596 169.956 168.525 169.886 168.525 169.815C168.525 169.744 168.525 169.603 168.596 169.532L169.302 168.755Z" fill="black"/>
<path d="M162.802 177.446C162.731 177.516 162.66 177.516 162.519 177.516C162.448 177.516 162.307 177.446 162.307 177.375L161.671 176.668C161.601 176.598 161.601 176.527 161.601 176.386C161.601 176.315 161.671 176.174 161.742 176.174L166.052 172.358C166.123 172.288 166.193 172.288 166.335 172.288C166.405 172.288 166.547 172.358 166.547 172.429L172.199 178.717C172.27 178.788 172.27 178.859 172.27 179C172.27 179.071 172.199 179.212 172.128 179.212L167.889 182.957C167.818 183.027 167.748 183.027 167.606 183.027C167.536 183.027 167.394 182.957 167.394 182.886L166.759 182.18C166.688 182.109 166.688 182.038 166.688 181.897C166.688 181.826 166.759 181.685 166.829 181.685L170.009 178.859L168.596 177.304L165.628 179.918C165.557 179.989 165.487 179.989 165.345 179.989C165.275 179.989 165.133 179.918 165.133 179.848L164.498 179.141C164.427 179.071 164.427 179 164.427 178.859C164.427 178.788 164.497 178.647 164.568 178.647L167.536 176.032L166.052 174.407L162.802 177.446Z" fill="black"/>
<path d="M154.394 181.19C154.535 181.12 154.606 181.049 154.747 181.12C154.888 181.12 154.959 181.19 154.959 181.19L160.965 183.805L158.068 179.212C157.997 179.141 157.997 179.071 157.997 178.929C157.997 178.859 158.068 178.788 158.138 178.717L159.057 178.152C159.128 178.082 159.198 178.082 159.34 178.082C159.41 178.082 159.481 178.152 159.552 178.223L164.074 185.359C164.144 185.43 164.144 185.5 164.144 185.642C164.144 185.712 164.074 185.783 164.003 185.854L163.226 186.348C163.084 186.419 163.014 186.49 162.872 186.419C162.731 186.419 162.66 186.348 162.66 186.348L156.655 183.734L159.552 188.327C159.622 188.397 159.622 188.468 159.622 188.609C159.622 188.68 159.552 188.751 159.481 188.821L158.562 189.387C158.492 189.457 158.421 189.457 158.28 189.457C158.209 189.457 158.138 189.387 158.068 189.316L153.546 182.18C153.475 182.109 153.475 182.038 153.475 181.897C153.475 181.826 153.546 181.756 153.616 181.685L154.394 181.19Z" fill="black"/>
<path d="M151.073 193.061C150.508 193.344 149.942 193.485 149.448 193.485C148.953 193.556 148.459 193.485 148.035 193.273C147.611 193.132 147.258 192.849 146.904 192.496C146.551 192.143 146.268 191.719 145.986 191.224C145.703 190.659 145.42 190.023 145.209 189.458C144.997 188.963 144.926 188.469 144.855 187.974C144.785 187.479 144.926 187.055 145.067 186.632C145.209 186.208 145.491 185.854 145.844 185.501C146.198 185.148 146.692 184.865 147.258 184.582L150.296 183.24C150.366 183.169 150.508 183.169 150.578 183.24C150.649 183.311 150.72 183.311 150.79 183.452L154.182 191.224C154.253 191.295 154.253 191.436 154.182 191.507C154.111 191.577 154.111 191.648 153.97 191.719L151.073 193.061ZM147.611 190.659C147.752 190.942 147.893 191.154 148.105 191.295C148.317 191.507 148.529 191.648 148.741 191.719C148.953 191.789 149.236 191.86 149.519 191.86C149.801 191.86 150.154 191.789 150.437 191.577L152.062 190.871L149.66 185.501L147.964 186.208C147.611 186.349 147.399 186.49 147.187 186.702C146.975 186.914 146.834 187.126 146.763 187.338C146.692 187.55 146.622 187.833 146.622 188.045C146.622 188.327 146.692 188.539 146.763 188.822C147.046 189.458 147.328 190.023 147.611 190.659Z" fill="black"/>
<path d="M140.263 196.806C139.697 196.947 139.203 197.017 138.708 196.947C138.214 196.876 137.86 196.806 137.507 196.664C137.154 196.523 136.871 196.311 136.659 196.028C136.447 195.816 136.306 195.534 136.235 195.322C136.235 195.251 136.235 195.11 136.306 195.039C136.377 194.968 136.447 194.898 136.518 194.898L137.436 194.686C137.578 194.686 137.719 194.686 137.79 194.686C137.86 194.756 137.931 194.756 138.072 194.827C138.284 195.039 138.496 195.18 138.779 195.251C139.061 195.322 139.485 195.322 139.98 195.18C140.192 195.11 140.404 195.039 140.616 194.968C140.828 194.898 140.969 194.756 141.111 194.615C141.252 194.474 141.322 194.333 141.393 194.191C141.464 194.05 141.464 193.909 141.393 193.697C141.322 193.485 141.252 193.343 141.181 193.273C141.04 193.202 140.899 193.061 140.687 193.061C140.475 192.99 140.192 192.99 139.839 192.99C139.485 192.99 139.061 192.99 138.567 192.99C138.002 192.99 137.578 192.99 137.154 192.919C136.73 192.849 136.377 192.778 136.094 192.566C135.811 192.425 135.599 192.213 135.387 192.001C135.175 191.789 135.105 191.436 134.963 191.082C134.893 190.729 134.893 190.305 134.963 189.952C135.034 189.599 135.246 189.245 135.458 188.963C135.741 188.68 136.094 188.397 136.518 188.115C136.942 187.903 137.436 187.691 138.002 187.55C138.496 187.408 138.92 187.408 139.415 187.408C139.909 187.408 140.333 187.479 140.687 187.62C141.04 187.761 141.393 187.973 141.676 188.185C141.958 188.468 142.17 188.751 142.241 189.104C142.241 189.175 142.241 189.316 142.17 189.387C142.1 189.457 142.029 189.528 141.958 189.528L141.04 189.74C140.899 189.74 140.757 189.811 140.687 189.74C140.616 189.74 140.545 189.669 140.475 189.528C140.404 189.457 140.263 189.316 140.192 189.245C140.051 189.175 139.909 189.104 139.768 189.033C139.627 188.963 139.415 188.963 139.203 188.963C138.991 188.963 138.708 188.963 138.355 189.104C138.072 189.175 137.86 189.245 137.648 189.316C137.436 189.387 137.224 189.528 137.083 189.669C136.942 189.811 136.8 189.952 136.73 190.093C136.659 190.234 136.659 190.446 136.659 190.658C136.73 190.87 136.8 191.012 136.942 191.082C137.083 191.153 137.295 191.224 137.578 191.224C137.86 191.224 138.143 191.294 138.567 191.224C138.92 191.224 139.344 191.224 139.909 191.224C140.333 191.224 140.757 191.224 141.111 191.294C141.464 191.365 141.746 191.436 142.029 191.648C142.312 191.789 142.524 192.001 142.665 192.283C142.806 192.566 142.948 192.849 143.089 193.202C143.16 193.555 143.16 193.979 143.089 194.333C143.018 194.686 142.806 195.039 142.594 195.322C142.382 195.604 142.029 195.887 141.676 196.099C141.181 196.452 140.757 196.664 140.263 196.806Z" fill="black"/>
<path d="M120.125 194.615C84.4439 194.615 55.5454 165.717 55.5454 130.035C55.5454 94.3536 84.4439 65.4551 120.125 65.4551" stroke="black" stroke-width="1.95909" stroke-miterlimit="10"/>
<path d="M123.305 113.36C115.674 113.36 109.527 119.578 109.527 127.138V142.894H137.154V127.138C137.083 119.578 130.936 113.36 123.305 113.36ZM136.094 141.976H110.445V127.209C110.445 120.143 116.169 114.42 123.234 114.42C130.3 114.42 136.023 120.143 136.023 127.209V141.976H136.094Z" fill="#1D1D1B" stroke="#1D1D1B" stroke-width="1.50788" stroke-miterlimit="10"/>
<path d="M123.305 116.682C117.511 116.682 112.777 121.416 112.777 127.209V139.716H133.904V127.209C133.833 121.416 129.099 116.682 123.305 116.682ZM122.811 117.6V127.633H113.696C113.555 121.84 117.865 117.883 122.811 117.6ZM122.811 138.726H113.696V128.623H122.811V138.726ZM132.914 138.726H123.8V128.623H132.914V138.726ZM132.914 127.704H123.8V117.671C127.968 117.6 133.126 121.557 132.914 127.704Z" fill="black" stroke="#1D1D1B" stroke-width="1.46838" stroke-miterlimit="10"/>
<defs>
<radialGradient id="paint0_radial" cx="0" cy="0" r="1" gradientUnits="userSpaceOnUse" gradientTransform="translate(123.968 156.707) rotate(90) scale(122.691 116.769)">
<stop offset="0.68106" stop-color="#756311" stop-opacity="0.72"/>
<stop offset="0.806949" stop-color="#4F430C" stop-opacity="0.29"/>
<stop offset="0.897742" stop-color="#342C08" stop-opacity="0.09"/>
<stop offset="1" stop-color="#5B4D0B" stop-opacity="0"/>
</radialGradient>
<radialGradient id="paint1_radial" cx="0" cy="0" r="1" gradientUnits="userSpaceOnUse" gradientTransform="translate(124.103 112.206) rotate(56.1879) scale(151.443 151.59)">
<stop stop-color="#F49505"/>
<stop offset="1" stop-color="#FFB801"/>
</radialGradient>
<radialGradient id="paint2_radial" cx="0" cy="0" r="1" gradientUnits="userSpaceOnUse" gradientTransform="translate(141.158 150.458) rotate(91.4424) scale(125.317 125.353)">
<stop offset="0.740671" stop-color="#FFD301"/>
<stop offset="1" stop-color="#FFD301" stop-opacity="0"/>
</radialGradient>
</defs>
</svg>
