<svg width="50" height="46" viewBox="0 0 50 46" fill="none" xmlns="http://www.w3.org/2000/svg">
<path d="M45.9288 35.3932L45.9198 35.4061V35.4185H45.9098L45.8949 35.4399C43.8229 38.4179 41.0617 40.8507 37.8466 42.5313C34.6314 44.2118 31.0577 45.0902 27.4299 45.0915C26.6772 45.0915 25.925 45.0543 25.1761 44.9802V44.9396L25.1204 44.9459C21.9728 45.3046 18.785 44.9952 15.7651 44.0379C12.7453 43.0806 9.96135 41.497 7.59526 39.3904C5.22917 37.2838 3.33415 34.7018 2.03399 31.8129C0.733839 28.924 0.0578085 25.7934 0.0500672 22.6254C0.042326 19.4575 0.703048 16.3235 1.98907 13.4283C3.27509 10.5331 5.15747 7.94184 7.51323 5.82374C9.869 3.70564 12.6451 2.10839 15.6603 1.13634C18.6754 0.164293 21.8617 -0.160683 25.011 0.182646L25.0109 0.183829L25.0218 0.182652C25.8216 0.0963491 26.6255 0.052318 27.4299 0.0507426C31.541 0.0478553 35.5743 1.17115 39.092 3.29868C42.6097 5.42621 45.4775 8.4767 47.3839 12.119C49.2904 15.7613 50.1627 19.8562 49.9061 23.9593C49.6496 28.0623 48.274 32.0167 45.9288 35.3932ZM46.414 13.7542H46.4926L46.4592 13.683C45.9293 12.5518 45.2996 11.4702 44.5774 10.4509L44.5625 10.4298H44.5366H41.6411H41.5498L41.599 10.5068C42.2538 11.5312 42.8243 12.6072 43.3049 13.724L43.3179 13.7542H43.3508H46.414ZM47.1388 15.299L47.1267 15.2664H47.0919H43.9611H43.8912L43.9137 15.3325C44.271 16.3827 44.5495 17.458 44.747 18.5496L44.7544 18.5907H44.7962H47.9955H48.0562L48.0446 18.5311C47.8302 17.4311 47.5273 16.3502 47.1388 15.299ZM48.3679 23.4272H48.4161L48.4179 23.379L48.4199 23.3233C48.429 23.0743 48.4381 22.8234 48.4381 22.5711V22.571C48.4364 21.761 48.3884 20.9516 48.2942 20.1471L48.2891 20.1029H48.2446H45.0323H44.9766L44.9826 20.1582C45.0694 20.9596 45.1132 21.7651 45.1137 22.5711C45.1137 22.7924 45.1061 23.0119 45.0985 23.2326C45.0968 23.2802 45.0952 23.3278 45.0936 23.3756L45.0919 23.4272H45.1436H48.3679ZM45.0323 24.9394H44.9874L44.9826 24.984C44.8364 26.3466 44.565 27.6927 44.1719 29.0055L44.1526 29.0698H44.2198H47.3684H47.4047L47.4159 29.0352C47.8417 27.7209 48.1359 26.3676 48.2943 24.9951L48.3007 24.9394H48.2446H45.0323ZM43.6701 30.582H43.6357L43.6234 30.614C43.1966 31.7257 42.6819 32.8015 42.084 33.8312L42.0404 33.9063H42.1272H45.0831H45.1104L45.1252 33.8833C45.7838 32.8574 46.3516 31.776 46.822 30.6513L46.851 30.582H46.7759H43.6701ZM43.267 8.91768H43.3763L43.3048 8.83498C42.5495 7.96128 41.7243 7.15061 40.8372 6.41102L40.8233 6.39942H40.8052H38.3676H38.245L38.3327 6.48517C39.102 7.23766 39.8167 8.04401 40.4713 8.8981L40.4863 8.91768H40.511H43.267ZM38.5788 4.88725H38.7516L38.6055 4.79498C36.6577 3.56455 34.5196 2.66517 32.2779 2.13336L32.2448 2.22712C33.7567 2.94963 35.1835 3.83822 36.4988 4.8765L36.5124 4.88725H36.5298H38.5788ZM1.58515 22.5711L1.58515 22.5712C1.59157 28.1409 3.80698 33.4807 7.74538 37.4191C11.6838 41.3575 17.0236 43.5729 22.5933 43.5793C26.7484 43.5793 30.8101 42.3472 34.2649 40.0388C37.7197 37.7304 40.4123 34.4494 42.0024 30.6106C43.5925 26.7719 44.0085 22.5478 43.1979 18.4726C42.3873 14.3974 40.3865 10.6541 37.4484 7.71607C34.5103 4.77802 30.767 2.77719 26.6919 1.96658C22.6167 1.15597 18.3926 1.57201 14.5539 3.16207C10.7151 4.75213 7.43408 7.4448 5.12567 10.8996C2.81726 14.3544 1.58515 18.4161 1.58515 22.5711ZM36.5298 40.255H36.5124L36.4988 40.2657C35.1835 41.304 33.7567 42.1926 32.2448 42.9151L32.2779 43.0089C34.5196 42.4771 36.6577 41.5777 38.6055 40.3473L38.7516 40.255H38.5788H36.5298ZM38.3327 38.6571L38.2451 38.7428H38.3676H40.802H40.8052H40.8233L40.8372 38.7312C41.9936 37.7683 43.044 36.6849 43.9706 35.4993L44.0338 35.4185H43.9312H41.0995H41.0734L41.0585 35.4398C40.2519 36.5947 39.3393 37.6718 38.3327 38.6571Z" fill="#212121" stroke="white" stroke-width="0.1"/>
<path d="M16.9508 22.6212H17.0008V22.5712V12.0921C17.0008 11.8916 17.0805 11.6993 17.2223 11.5575C17.3641 11.4157 17.5564 11.336 17.7569 11.336H24.2056C25.9026 11.336 27.5302 12.0102 28.7302 13.2101C29.9301 14.4101 30.6043 16.0377 30.6043 17.7347C30.6043 19.4317 29.9301 21.0593 28.7302 22.2592C27.5302 23.4592 25.9026 24.1334 24.2056 24.1334H18.563H18.513V24.1834V25.7955V25.8455H18.563H25.8178C26.0183 25.8455 26.2106 25.9252 26.3524 26.067C26.4942 26.2088 26.5739 26.4011 26.5739 26.6016C26.5739 26.8021 26.4942 26.9945 26.3524 27.1363C26.2106 27.278 26.0183 27.3577 25.8178 27.3577H18.563H18.513V27.4077V33.0503C18.513 33.2508 18.4334 33.4431 18.2916 33.5849C18.1498 33.7267 17.9575 33.8064 17.7569 33.8064C17.5564 33.8064 17.3641 33.7267 17.2223 33.5849C17.0805 33.4431 17.0008 33.2508 17.0008 33.0503V27.4077V27.3577H16.9508H15.3387C15.1382 27.3577 14.9458 27.278 14.804 27.1363C14.6623 26.9945 14.5826 26.8021 14.5826 26.6016C14.5826 26.4011 14.6623 26.2088 14.804 26.067C14.9458 25.9252 15.1382 25.8455 15.3387 25.8455H16.9508H17.0008V25.7955V24.1834V24.1334H16.9508H15.3387C15.1382 24.1334 14.9458 24.0537 14.804 23.9119C14.6623 23.7701 14.5826 23.5778 14.5826 23.3773C14.5826 23.1768 14.6623 22.9844 14.804 22.8426C14.9458 22.7009 15.1382 22.6212 15.3387 22.6212H16.9508ZM18.513 22.5712V22.6212H18.563H24.2056C25.5016 22.6212 26.7445 22.1064 27.6609 21.19C28.5773 20.2736 29.0921 19.0307 29.0921 17.7347C29.0921 16.4387 28.5773 15.1958 27.6609 14.2794C26.7445 13.363 25.5016 12.8482 24.2056 12.8482H18.563H18.513V12.8982V22.5712Z" fill="#212121" stroke="white" stroke-width="0.1"/>
<path d="M12.7686 7.86755C15.6767 5.92443 19.0957 4.88729 22.5932 4.88728C27.2816 4.89261 31.7765 6.75744 35.0917 10.0727C38.407 13.3879 40.2718 17.8828 40.2771 22.5711C40.2771 26.0687 39.24 29.4877 37.2969 32.3958C35.3537 35.3039 32.5919 37.5705 29.3606 38.9089C26.1293 40.2474 22.5736 40.5976 19.1433 39.9152C15.713 39.2329 12.562 37.5487 10.0889 35.0755C7.61574 32.6024 5.93151 29.4514 5.24917 26.0211C4.56684 22.5908 4.91704 19.0351 6.25549 15.8038C7.59394 12.5725 9.86052 9.81068 12.7686 7.86755ZM13.6087 36.0174C16.2682 37.7944 19.3948 38.7428 22.5933 38.7428C26.8808 38.7379 30.9912 37.0326 34.023 34.0008C37.0547 30.9691 38.76 26.8587 38.7649 22.5712C38.7649 19.3727 37.8165 16.2461 36.0395 13.5866C34.2626 10.9272 31.7369 8.85445 28.7819 7.63045C25.8269 6.40645 22.5753 6.0862 19.4383 6.71018C16.3013 7.33417 13.4198 8.87438 11.1581 11.136C8.89648 13.3977 7.35628 16.2792 6.73229 19.4162C6.1083 22.5532 6.42855 25.8048 7.65255 28.7598C8.87655 31.7148 10.9493 34.2405 13.6087 36.0174Z" fill="#212121" stroke="white" stroke-width="0.1"/>
<path d="M9.69573 20.2028H11.3079C11.5084 20.2028 11.7007 20.2825 11.8425 20.4243C11.9843 20.5661 12.064 20.7584 12.064 20.9589C12.064 21.1594 11.9843 21.3518 11.8425 21.4936C11.7007 21.6353 11.5084 21.715 11.3079 21.715H9.69573C9.49521 21.715 9.30289 21.6353 9.1611 21.4936C9.01931 21.3518 8.93965 21.1594 8.93965 20.9589C8.93965 20.7584 9.01931 20.5661 9.1611 20.4243C9.30289 20.2825 9.49521 20.2028 9.69573 20.2028Z" fill="#212121" stroke="white" stroke-width="0.1"/>
<path d="M9.69573 23.4272H11.3079C11.5084 23.4272 11.7007 23.5069 11.8425 23.6486C11.9843 23.7904 12.064 23.9828 12.064 24.1833C12.064 24.3838 11.9843 24.5761 11.8425 24.7179C11.7007 24.8597 11.5084 24.9394 11.3079 24.9394H9.69573C9.49521 24.9394 9.30289 24.8597 9.1611 24.7179C9.01931 24.5761 8.93965 24.3838 8.93965 24.1833C8.93965 23.9828 9.01931 23.7904 9.1611 23.6486C9.30289 23.5069 9.49521 23.4272 9.69573 23.4272Z" fill="#212121" stroke="white" stroke-width="0.1"/>
<path d="M35.4906 21.715H33.8785C33.6779 21.715 33.4856 21.6353 33.3438 21.4936C33.202 21.3518 33.1224 21.1594 33.1224 20.9589C33.1224 20.7584 33.202 20.5661 33.3438 20.4243C33.4856 20.2825 33.6779 20.2028 33.8785 20.2028H35.4906C35.6912 20.2028 35.8835 20.2825 36.0253 20.4243C36.1671 20.5661 36.2467 20.7584 36.2467 20.9589C36.2467 21.1594 36.1671 21.3518 36.0253 21.4936C35.8835 21.6353 35.6912 21.715 35.4906 21.715Z" fill="#212121" stroke="white" stroke-width="0.1"/>
<path d="M33.8785 23.4272H35.4906C35.6912 23.4272 35.8835 23.5069 36.0253 23.6486C36.1671 23.7904 36.2467 23.9828 36.2467 24.1833C36.2467 24.3838 36.1671 24.5761 36.0253 24.7179C35.8835 24.8597 35.6912 24.9394 35.4906 24.9394H33.8785C33.6779 24.9394 33.4856 24.8597 33.3438 24.7179C33.202 24.5761 33.1224 24.3838 33.1224 24.1833C33.1224 23.9828 33.202 23.7904 33.3438 23.6486C33.4856 23.5069 33.6779 23.4272 33.8785 23.4272Z" fill="#212121" stroke="white" stroke-width="0.1"/>
</svg>
